<?xml version="1.0" encoding="UTF-8" standalone="no"?>
<!-- Generator: Adobe Illustrator 16.0.0, SVG Export Plug-In . SVG Version: 6.00 Build 0)  -->

<svg
   xmlns:dc="http://purl.org/dc/elements/1.1/"
   xmlns:cc="http://creativecommons.org/ns#"
   xmlns:rdf="http://www.w3.org/1999/02/22-rdf-syntax-ns#"
   xmlns:svg="http://www.w3.org/2000/svg"
   xmlns="http://www.w3.org/2000/svg"
   xmlns:sodipodi="http://sodipodi.sourceforge.net/DTD/sodipodi-0.dtd"
   xmlns:inkscape="http://www.inkscape.org/namespaces/inkscape"
   version="1.1"
   id="Layer_1"
   x="0px"
   y="0px"
   width="600.89001"
   height="400.27502"
   viewBox="0 0 600.89 400.27501"
   enable-background="new 0 0 841.89 595.275"
   xml:space="preserve"
   sodipodi:docname="logo_castspot.svg"
   inkscape:version="0.92.3 (2405546, 2018-03-11)"><metadata
   id="metadata901"><rdf:RDF><cc:Work
       rdf:about=""><dc:format>image/svg+xml</dc:format><dc:type
         rdf:resource="http://purl.org/dc/dcmitype/StillImage" /><dc:title></dc:title></cc:Work></rdf:RDF></metadata><defs
   id="defs899" /><sodipodi:namedview
   pagecolor="#ffffff"
   bordercolor="#666666"
   borderopacity="1"
   objecttolerance="10"
   gridtolerance="10"
   guidetolerance="10"
   inkscape:pageopacity="0"
   inkscape:pageshadow="2"
   inkscape:window-width="1853"
   inkscape:window-height="1025"
   id="namedview897"
   showgrid="false"
   inkscape:zoom="1.417832"
   inkscape:cx="249.62045"
   inkscape:cy="311.21299"
   inkscape:window-x="3907"
   inkscape:window-y="1107"
   inkscape:window-maximized="1"
   inkscape:current-layer="Layer_1" />
<path
   d="m 278.2875,73.485283 c 31.11906,0 56.34733,25.22828 56.34733,56.347327 0,31.11903 -25.22827,56.34731 -56.34733,56.34731 -31.11903,0 -56.34732,-25.22828 -56.34732,-56.34731 0,-31.120452 25.22829,-56.347327 56.34732,-56.347327"
   id="path886"
   inkscape:connector-curvature="0"
   style="clip-rule:evenodd;fill:#544ade;fill-rule:evenodd;stroke-width:1.4052403" />
<path
   d="m 358.40166,178.42441 c -8.10543,13.34978 -19.42463,24.45259 -32.91776,32.31913 -13.47063,7.85108 -28.68095,12.22981 -44.26787,12.71742 -24.94724,0.77991 -48.9642,-8.30215 -67.15222,-25.38846 -18.18803,-17.08634 -28.75262,-40.4878 -29.53253,-65.43363 -0.7799,-24.94723 8.30356,-48.961379 25.38847,-67.15081 17.08492,-18.189431 40.48779,-28.754027 65.43502,-29.533935 17.73975,-0.55507 35.23499,3.950129 50.5198,12.95772 15.30306,9.017427 27.73663,22.156424 35.83643,37.971 3.12525,6.101552 0.68717,13.606935 -5.41579,16.722355 -6.10297,3.11682 -13.59851,0.68435 -16.71955,-5.412982 C 333.6343,86.590555 324.51992,76.9492 313.29345,70.336139 c -11.24334,-6.625708 -24.11814,-9.897107 -37.16018,-9.489587 -18.32714,0.573338 -35.51183,8.327454 -48.06484,21.69129 -12.5516,13.362429 -19.21947,30.996788 -18.64612,49.323928 0.57333,18.32714 8.32885,35.51183 21.68988,48.06343 13.36243,12.55302 30.99818,19.21949 49.32674,18.64615 11.46817,-0.35834 22.66792,-3.55947 32.5805,-9.33784 9.89289,-5.7643 18.20207,-13.89361 24.14624,-23.68251 3.55105,-5.85142 11.19977,-7.73022 17.0554,-4.18199 5.85423,3.54542 7.73445,11.20117 4.18059,17.0554"
   id="path888"
   inkscape:connector-curvature="0"
   style="clip-rule:evenodd;fill:#544ade;fill-rule:evenodd;stroke-width:1.4052403" />
<path
   d="m 282.73791,169.04725 c 7.17375,-0.22626 13.95262,-3.18288 19.0424,-8.27266 5.29916,-5.29916 8.28671,-12.43076 8.28671,-19.93193 V 124.13155 H 298.693 v -15.23421 c 0,-5.42423 -2.15844,-10.57865 -5.99335,-14.413551 -3.83209,-3.833495 -8.98791,-5.991945 -14.41495,-5.991945 -5.42423,0 -10.58006,2.159855 -14.41355,5.991945 -3.8349,3.834901 -5.99195,8.989321 -5.99195,14.413551 v 15.23421 h -11.3726 v 16.71111 c 0,7.50117 2.98613,14.63277 8.2881,19.93193 5.08978,5.09118 11.86585,8.0464 19.03961,8.27266 v 22.79158 c 1.47128,0.10255 2.95521,0.15458 4.45319,0.15458 1.49518,0 2.97912,-0.052 4.45041,-0.15318 z m -17.36035,-32.23903 v -14.01446 h 5.15302 c 1.60337,0 2.91588,-1.31109 2.91588,-2.91447 0,-1.60479 -1.31251,-2.91587 -2.91588,-2.91587 h -5.15302 v -5.92169 h 5.15302 c 1.60337,0 2.91588,-1.31249 2.91588,-2.91728 0,-1.60338 -1.31251,-2.91447 -2.91588,-2.91447 h -4.60919 c 0.61129,-2.02916 1.72142,-3.89532 3.25313,-5.425624 2.42264,-2.425445 5.67998,-3.79415 9.11159,-3.79415 3.43299,0 6.68752,1.368705 9.11438,3.79415 2.42404,2.425444 3.79275,5.679974 3.79275,9.112984 v 27.91088 c 0,3.433 -1.37012,6.69035 -3.79275,9.11438 -2.42825,2.42545 -5.68139,3.79416 -9.11438,3.79416 -3.43161,0 -6.68895,-1.37012 -9.11159,-3.79416 -2.42544,-2.42403 -3.79696,-5.68138 -3.79696,-9.11438 z m -5.28089,18.6644 c -3.89392,-3.89252 -6.09031,-9.12142 -6.09031,-14.63136 v -9.21276 h 3.87565 v 5.17831 c 0,5.42563 2.15704,10.58286 5.99195,14.41636 3.83349,3.83208 8.98932,5.99054 14.41354,5.99054 5.42564,0 10.58147,-2.15846 14.41497,-5.99054 3.83489,-3.8335 5.99334,-8.99073 5.99334,-14.41636 v -5.17831 h 3.87566 v 9.21276 c 0,5.50854 -2.19639,10.73884 -6.09031,14.63136 -3.89252,3.89391 -9.12282,6.08891 -14.63137,6.08891 h -7.12175 c -5.50996,0 -10.74026,-2.195 -14.63137,-6.08891 z"
   id="path890"
   inkscape:connector-curvature="0"
   style="clip-rule:evenodd;fill:#ffffff;fill-rule:evenodd;stroke-width:1.4052403" />
<path
   d="m 257.54897,325.90861 h 12.41671 v -44.9944 h 17.17625 v -11.44989 h -46.76921 v 11.44989 h 17.17625 z m -66.42008,0.80661 c 3.06623,0 5.84719,-0.38925 8.37382,-1.15512 2.52662,-0.76585 4.71598,-1.89566 6.55827,-3.38662 1.84226,-1.49238 3.26716,-3.31918 4.27473,-5.4959 0.99351,-2.16407 1.50501,-4.65135 1.51766,-7.45901 v -0.1616 c 0,-2.44652 -0.4033,-4.56984 -1.18181,-6.38402 -0.79256,-1.80151 -1.94907,-3.34727 -3.46672,-4.65134 -1.53172,-1.30265 -3.40069,-2.43106 -5.61816,-3.37257 -2.21607,-0.95417 -4.77079,-1.78607 -7.63327,-2.52663 -2.41982,-0.6169 -4.43352,-1.18181 -6.02004,-1.6919 -1.58651,-0.5101 -2.82314,-1.03567 -3.72248,-1.55982 -0.90077,-0.53821 -1.53172,-1.12982 -1.90832,-1.80012 -0.36115,-0.65906 -0.5368,-1.45161 -0.52416,-2.36642 v -0.1602 c 0,-0.92747 0.28246,-1.76077 0.81927,-2.49993 0.55225,-0.73774 1.3715,-1.3167 2.4451,-1.75935 1.07642,-0.43282 2.40718,-0.64641 3.99229,-0.66047 2.37768,0.0141 4.7975,0.51151 7.24402,1.47973 2.45917,0.9668 4.93238,2.33831 7.43232,4.08504 l 6.45145,-9.3533 c -2.86248,-2.31302 -6.04815,-4.08502 -9.54299,-5.30759 -3.50747,-1.23801 -7.31006,-1.85492 -11.42319,-1.86897 -2.88919,0.0141 -5.54929,0.41737 -7.95508,1.22257 -2.40576,0.79255 -4.48833,1.94907 -6.2505,3.44002 -1.75935,1.49377 -3.11682,3.29389 -4.08503,5.37645 -0.96681,2.08257 -1.45161,4.40824 -1.46426,6.97561 v 0.1602 c 0.0127,2.78096 0.45669,5.12069 1.33076,7.01496 0.87406,1.89427 2.12332,3.46813 3.76323,4.73003 1.63991,1.25068 3.60164,2.31304 5.8992,3.15758 2.28492,0.86143 4.86495,1.63993 7.71477,2.35238 2.33832,0.60565 4.26069,1.17056 5.75306,1.69331 1.5036,0.53821 2.66012,1.07641 3.46673,1.62727 0.81925,0.5368 1.38275,1.12842 1.70595,1.74531 0.30916,0.63095 0.45671,1.33077 0.44265,2.11068 v 0.1616 c -0.0126,1.66661 -0.73774,2.96927 -2.16407,3.89672 -1.42492,0.94012 -3.41332,1.41087 -5.9807,1.42492 -2.15002,0 -4.17918,-0.28245 -6.10155,-0.84736 -1.93501,-0.55225 -3.79134,-1.34482 -5.56335,-2.36643 -1.77482,-1.02302 -3.49342,-2.23152 -5.18675,-3.64239 l -7.33815,8.78979 c 2.27087,2.01652 4.70333,3.69578 7.32411,5.02655 2.60672,1.34341 5.309,2.33832 8.11807,3.01002 2.80627,0.66046 5.64204,0.99632 8.50312,0.99632 z m -88.51047,-24.43152 7.49976,-18.30465 7.49836,18.30465 z M 80.362221,325.90861 H 93.022032 L 98.18348,313.2488 h 23.868 l 5.16005,12.65981 h 12.98301 l -24.19121,-56.8476 h -11.4499 z m -51.177447,0.96961 c 2.714925,0 5.174094,-0.24311 7.391564,-0.69841 2.21747,-0.47216 4.246637,-1.14386 6.088906,-2.01792 1.840866,-0.87265 3.548232,-1.93502 5.131939,-3.17022 1.573868,-1.23802 3.092933,-2.63482 4.530494,-4.19324 l -7.903072,-7.98317 c -1.46426,1.35605 -2.915873,2.51117 -4.380134,3.50607 -1.46426,0.98226 -3.038129,1.74672 -4.731445,2.28634 -1.67926,0.53679 -3.588983,0.81925 -5.724948,0.81925 -2.432471,-0.0141 -4.637293,-0.48481 -6.638355,-1.41227 -2.002468,-0.92606 -3.722481,-2.20341 -5.174095,-3.83068 -1.453019,-1.62587 -2.567373,-3.50607 -3.359928,-5.64485 -0.792554,-2.13597 -1.183211,-4.42089 -1.197264,-6.85336 v -0.1602 c 0.01406,-2.43247 0.417357,-4.71739 1.223964,-6.82806 0.792554,-2.12472 1.935013,-3.97824 3.386626,-5.59146 1.465667,-1.6118 3.199734,-2.86247 5.186742,-3.77729 1.989821,-0.9134 4.180592,-1.3701 6.57231,-1.38416 1.867565,0 3.629735,0.25717 5.282298,0.76727 1.652563,0.5101 3.225027,1.24926 4.731445,2.19077 1.505012,0.95415 2.969272,2.08257 4.420885,3.41333 l 7.903073,-9.11158 c -1.732661,-1.73265 -3.642384,-3.25032 -5.737597,-4.55438 -2.096618,-1.30407 -4.489743,-2.31162 -7.176562,-3.03672 -2.702278,-0.74056 -5.805047,-1.10171 -9.340634,-1.11577 -3.480779,0.0141 -6.719858,0.51011 -9.717236,1.49237 -3.010024,0.98085 -5.710894,2.36643 -8.130718,4.16513 -2.4198224,1.78747 -4.4883365,3.89814 -6.222403,6.33201 -1.7200141,2.41842 -3.0381296,5.0926 -3.9641831,8.00847 -0.92745862,2.90182 -1.38416164,5.96665 -1.39821397,9.19308 v 0.16021 c 0.0126463,3.25171 0.48340265,6.3306 1.41086137,9.24647 0.9401057,2.90182 2.269463,5.56475 3.9908824,7.96912 1.7326612,2.41982 3.7913384,4.50239 6.1816513,6.26316 2.393125,1.76076 5.053242,3.11823 7.970521,4.08504 2.927115,0.96679 6.059395,1.4516 9.392626,1.46565 z"
   id="path892"
   inkscape:connector-curvature="0"
   style="fill:#544ade;stroke-width:1.4052403" />
<path
   d="m 580.52941,275.35088 h 18.94966 v -5.88516 h -44.34939 v 5.88516 h 18.94687 v 50.55913 h 6.45145 v -50.55913 z m -60.53072,22.41639 c 0,3.22643 -0.55227,6.2491 -1.65397,9.07223 -1.10171,2.82172 -2.61937,5.28089 -4.5558,7.37751 -1.93501,2.09802 -4.25928,3.75058 -6.9742,4.95908 -2.71633,1.20992 -5.6856,1.81558 -8.91204,1.81558 -3.22502,0 -6.19429,-0.61971 -8.90922,-1.85632 -2.71492,-1.23521 -5.0659,-2.90042 -7.05571,-4.99985 -1.98983,-2.09521 -3.5356,-4.56844 -4.63729,-7.41686 -1.10031,-2.84982 -1.65258,-5.88655 -1.65258,-9.11158 0,-3.22502 0.55227,-6.2491 1.65258,-9.07222 1.10169,-2.82173 2.62076,-5.2809 4.55578,-7.37752 1.93642,-2.09521 4.26069,-3.75059 6.97561,-4.95909 2.71633,-1.20851 5.68561,-1.81275 8.91063,-1.81275 3.22502,0 6.1957,0.61689 8.91063,1.85349 2.71492,1.23521 5.06589,2.90043 7.05571,4.99986 1.98842,2.09662 3.53559,4.56843 4.63729,7.41685 1.10171,2.84983 1.65258,5.88656 1.65258,9.11159 z m 6.61165,-0.1616 c 0,-3.92344 -0.68576,-7.64592 -2.05587,-11.16886 -1.37292,-3.52012 -3.32058,-6.61165 -5.84721,-9.27318 -2.52661,-2.66012 -5.5507,-4.77079 -9.07082,-6.3292 -3.52154,-1.55982 -7.43091,-2.33832 -11.73376,-2.33832 -4.30003,0 -8.22488,0.79115 -11.7731,2.37766 -3.54683,1.58652 -6.58496,3.72249 -9.11018,6.41072 -2.52661,2.68963 -4.48975,5.79239 -5.88514,9.31393 -1.39822,3.52154 -2.09662,7.2426 -2.09662,11.16743 0,3.92625 0.68435,7.64592 2.05586,11.16886 1.37153,3.52153 3.31918,6.61166 5.84581,9.27318 2.52803,2.66152 5.54929,4.77079 9.07082,6.33061 3.52293,1.55841 7.43232,2.33832 11.73376,2.33832 4.30143,0 8.22627,-0.79256 11.7731,-2.37907 3.54823,-1.58652 6.58495,-3.72248 9.11018,-6.41072 2.52803,-2.68821 4.48974,-5.7924 5.88655,-9.31392 1.39821,-3.51873 2.09662,-7.24261 2.09662,-11.16744 z m -96.09315,-9.91679 c 0,1.88022 -0.36115,3.58758 -1.08765,5.1207 -0.72652,1.53171 -1.77342,2.84842 -3.14493,3.95153 -1.37012,1.10171 -3.01003,1.94907 -4.91695,2.54068 -1.9083,0.59161 -4.01898,0.88811 -6.3306,0.88811 h -13.95122 v -24.83762 h 14.27303 c 4.56984,0 8.23751,1.03426 11.00584,3.10558 2.76972,2.0671 4.15248,5.14458 4.15248,9.23102 z m 6.45286,-0.24311 c 0,-2.79361 -0.49745,-5.30759 -1.49376,-7.53911 -0.99352,-2.23152 -2.41842,-4.11173 -4.27334,-5.64485 -1.85352,-1.53312 -4.08503,-2.71492 -6.69317,-3.54683 -2.60671,-0.83472 -5.49588,-1.25066 -8.6675,-1.25066 h -21.12499 v 56.44429 h 6.36855 v -19.91647 h 13.70812 c 3.01143,0 5.85985,-0.38926 8.54807,-1.17057 2.68823,-0.77851 5.0406,-1.94766 7.05572,-3.50608 2.01652,-1.55981 3.61427,-3.49482 4.79608,-5.80505 1.18462,-2.31162 1.77622,-4.99983 1.77622,-8.06467 z m -111.89787,-3.87002 c 0,-1.29143 0.28244,-2.49852 0.84735,-3.62974 0.5635,-1.12842 1.37152,-2.09521 2.41982,-2.90182 1.04832,-0.80522 2.31162,-1.45021 3.78994,-1.93503 1.47831,-0.4834 3.13088,-0.7251 4.95768,-0.7251 2.90323,0 5.6842,0.482 8.34573,1.45021 2.66153,0.96681 5.30759,2.52663 7.94241,4.67664 l 3.70843,-4.91834 c -2.9004,-2.31162 -5.89919,-4.04568 -8.98931,-5.20221 -3.09154,-1.1537 -6.70581,-1.73265 -10.84565,-1.73265 -2.68822,0 -5.16144,0.38925 -7.41826,1.17057 -2.25682,0.7785 -4.21993,1.85351 -5.88515,3.22502 -1.66521,1.37152 -2.95663,2.99598 -3.87143,4.879 -0.91341,1.88161 -1.37152,3.95013 -1.37152,6.20834 0,2.36643 0.37661,4.40825 1.1284,6.12825 0.75322,1.72002 1.90833,3.22504 3.46954,4.51645 1.55841,1.2886 3.53418,2.39173 5.9259,3.30513 2.39172,0.9134 5.20079,1.72142 8.42722,2.41982 2.95663,0.64501 5.38911,1.31812 7.29742,2.01652 1.90691,0.69982 3.39928,1.47831 4.47569,2.33832 1.07501,0.86001 1.82821,1.81557 2.25681,2.86247 0.43001,1.04832 0.64361,2.24558 0.64361,3.58899 0,2.90182 -1.14246,5.24154 -3.42598,7.01496 -2.28492,1.77483 -5.33569,2.66293 -9.15232,2.66293 -3.92483,0 -7.39298,-0.66047 -10.403,-1.97718 -3.01144,-1.3167 -5.99335,-3.31917 -8.94997,-6.00599 l -3.95154,4.67663 c 3.38523,3.06484 6.94751,5.33571 10.68404,6.81401 3.73654,1.47973 7.86372,2.21748 12.37876,2.21748 2.79644,0 5.37505,-0.37661 7.74148,-1.1284 2.36641,-0.75322 4.39558,-1.82823 6.08749,-3.22644 1.69332,-1.39821 3.02408,-3.09012 3.99229,-5.07994 0.96821,-1.98982 1.45162,-4.19184 1.45162,-6.61166 0,-4.35484 -1.49378,-7.76817 -4.47569,-10.24139 -2.98474,-2.47181 -7.62063,-4.40684 -13.90907,-5.80505 -3.11964,-0.64501 -5.67155,-1.33076 -7.66137,-2.05587 -1.98842,-0.7265 -3.54683,-1.53311 -4.67664,-2.41982 -1.12841,-0.88811 -1.90691,-1.86897 -2.33832,-2.94398 -0.43001,-1.07923 -0.64641,-2.28773 -0.64641,-3.63113 z"
   id="path894"
   inkscape:connector-curvature="0"
   style="fill:#544ade;stroke-width:1.4052403" />
</svg>